<?xml version="1.0" encoding="UTF-8" standalone="no"?>
<!DOCTYPE svg PUBLIC "-//W3C//DTD SVG 1.1//EN"
 "http://www.w3.org/Graphics/SVG/1.1/DTD/svg11.dtd">
<!-- Generated by graphviz version 2.38.0 (20140413.2041)
 -->
<!-- Title: %3 Pages: 1 -->
<svg width="1309pt" height="654pt"
 viewBox="0.00 0.00 1309.00 654.00" xmlns="http://www.w3.org/2000/svg" xmlns:xlink="http://www.w3.org/1999/xlink">
<g id="graph0" class="graph" transform="scale(1 1) rotate(0) translate(4 650)">
<title>%3</title>
<polygon fill="white" stroke="none" points="-4,4 -4,-650 1305,-650 1305,4 -4,4"/>
<g id="clust1" class="cluster"><title>cluster__photon</title>
<polygon fill="none" stroke="black" stroke-dasharray="1,5" points="8,-8 8,-638 1293,-638 1293,-8 8,-8"/>
<text text-anchor="middle" x="650.5" y="-622.8" font-family="Times New Roman,serif" font-size="14.00">Photon</text>
</g>
<g id="clust3" class="cluster"><title>cluster__preview_image_header</title>
<polygon fill="none" stroke="black" stroke-dasharray="1,5" points="62.5,-454 62.5,-607 262.5,-607 262.5,-454 62.5,-454"/>
<text text-anchor="middle" x="162.5" y="-591.8" font-family="Times New Roman,serif" font-size="14.00">Photon::PreviewImageHeader</text>
</g>
<g id="clust4" class="cluster"><title>cluster__layer</title>
<polygon fill="none" stroke="black" stroke-dasharray="1,5" points="751.5,-49 751.5,-244 1285,-244 1285,-49 751.5,-49"/>
<text text-anchor="middle" x="1018.25" y="-228.8" font-family="Times New Roman,serif" font-size="14.00">Photon::Layer</text>
</g>
<g id="clust2" class="cluster"><title>cluster__preview_image</title>
<polygon fill="none" stroke="black" stroke-dasharray="1,5" points="337,-374 337,-531 1012,-531 1012,-374 337,-374"/>
<text text-anchor="middle" x="674.5" y="-515.8" font-family="Times New Roman,serif" font-size="14.00">Photon::PreviewImage</text>
</g>
<!-- photon__seq -->
<g id="node1" class="node"><title>photon__seq</title>
<polygon fill="#e0ffe0" stroke="none" points="24.5,-419 24.5,-440 52.5,-440 52.5,-419 24.5,-419"/>
<polygon fill="none" stroke="black" points="24.5,-419 24.5,-440 52.5,-440 52.5,-419 24.5,-419"/>
<text text-anchor="start" x="27.5" y="-425.8" font-family="Times New Roman,serif" font-size="14.00">pos</text>
<polygon fill="#e0ffe0" stroke="none" points="52.5,-419 52.5,-440 80.5,-440 80.5,-419 52.5,-419"/>
<polygon fill="none" stroke="black" points="52.5,-419 52.5,-440 80.5,-440 80.5,-419 52.5,-419"/>
<text text-anchor="start" x="55.5" y="-425.8" font-family="Times New Roman,serif" font-size="14.00">size</text>
<polygon fill="#e0ffe0" stroke="none" points="80.5,-419 80.5,-440 165.5,-440 165.5,-419 80.5,-419"/>
<polygon fill="none" stroke="black" points="80.5,-419 80.5,-440 165.5,-440 165.5,-419 80.5,-419"/>
<text text-anchor="start" x="110.5" y="-425.8" font-family="Times New Roman,serif" font-size="14.00">type</text>
<polygon fill="#e0ffe0" stroke="none" points="165.5,-419 165.5,-440 301.5,-440 301.5,-419 165.5,-419"/>
<polygon fill="none" stroke="black" points="165.5,-419 165.5,-440 301.5,-440 301.5,-419 165.5,-419"/>
<text text-anchor="start" x="228" y="-425.8" font-family="Times New Roman,serif" font-size="14.00">id</text>
<polygon fill="none" stroke="black" points="24.5,-398 24.5,-419 52.5,-419 52.5,-398 24.5,-398"/>
<text text-anchor="start" x="35" y="-404.8" font-family="Times New Roman,serif" font-size="14.00">0</text>
<polygon fill="none" stroke="black" points="52.5,-398 52.5,-419 80.5,-419 80.5,-398 52.5,-398"/>
<text text-anchor="start" x="63" y="-404.8" font-family="Times New Roman,serif" font-size="14.00">8</text>
<polygon fill="none" stroke="black" points="80.5,-398 80.5,-419 165.5,-419 165.5,-398 80.5,-398"/>
<text text-anchor="start" x="111.5" y="-404.8" font-family="Times New Roman,serif" font-size="14.00">u8le</text>
<polygon fill="none" stroke="black" points="165.5,-398 165.5,-419 301.5,-419 301.5,-398 165.5,-398"/>
<text text-anchor="start" x="216.5" y="-404.8" font-family="Times New Roman,serif" font-size="14.00">magic</text>
<polygon fill="none" stroke="black" points="24.5,-377 24.5,-398 52.5,-398 52.5,-377 24.5,-377"/>
<text text-anchor="start" x="35" y="-383.8" font-family="Times New Roman,serif" font-size="14.00">8</text>
<polygon fill="none" stroke="black" points="52.5,-377 52.5,-398 80.5,-398 80.5,-377 52.5,-377"/>
<text text-anchor="start" x="63" y="-383.8" font-family="Times New Roman,serif" font-size="14.00">4</text>
<polygon fill="none" stroke="black" points="80.5,-377 80.5,-398 165.5,-398 165.5,-377 80.5,-377"/>
<text text-anchor="start" x="112.5" y="-383.8" font-family="Times New Roman,serif" font-size="14.00">f4le</text>
<polygon fill="none" stroke="black" points="165.5,-377 165.5,-398 301.5,-398 301.5,-377 165.5,-377"/>
<text text-anchor="start" x="215.5" y="-383.8" font-family="Times New Roman,serif" font-size="14.00">bed_x</text>
<polygon fill="none" stroke="black" points="24.5,-356 24.5,-377 52.5,-377 52.5,-356 24.5,-356"/>
<text text-anchor="start" x="31.5" y="-362.8" font-family="Times New Roman,serif" font-size="14.00">12</text>
<polygon fill="none" stroke="black" points="52.5,-356 52.5,-377 80.5,-377 80.5,-356 52.5,-356"/>
<text text-anchor="start" x="63" y="-362.8" font-family="Times New Roman,serif" font-size="14.00">4</text>
<polygon fill="none" stroke="black" points="80.5,-356 80.5,-377 165.5,-377 165.5,-356 80.5,-356"/>
<text text-anchor="start" x="112.5" y="-362.8" font-family="Times New Roman,serif" font-size="14.00">f4le</text>
<polygon fill="none" stroke="black" points="165.5,-356 165.5,-377 301.5,-377 301.5,-356 165.5,-356"/>
<text text-anchor="start" x="215.5" y="-362.8" font-family="Times New Roman,serif" font-size="14.00">bed_y</text>
<polygon fill="none" stroke="black" points="24.5,-335 24.5,-356 52.5,-356 52.5,-335 24.5,-335"/>
<text text-anchor="start" x="31.5" y="-341.8" font-family="Times New Roman,serif" font-size="14.00">16</text>
<polygon fill="none" stroke="black" points="52.5,-335 52.5,-356 80.5,-356 80.5,-335 52.5,-335"/>
<text text-anchor="start" x="63" y="-341.8" font-family="Times New Roman,serif" font-size="14.00">4</text>
<polygon fill="none" stroke="black" points="80.5,-335 80.5,-356 165.5,-356 165.5,-335 80.5,-335"/>
<text text-anchor="start" x="112.5" y="-341.8" font-family="Times New Roman,serif" font-size="14.00">f4le</text>
<polygon fill="none" stroke="black" points="165.5,-335 165.5,-356 301.5,-356 301.5,-335 165.5,-335"/>
<text text-anchor="start" x="216" y="-341.8" font-family="Times New Roman,serif" font-size="14.00">bed_z</text>
<polygon fill="none" stroke="black" points="24.5,-314 24.5,-335 52.5,-335 52.5,-314 24.5,-314"/>
<text text-anchor="start" x="31.5" y="-320.8" font-family="Times New Roman,serif" font-size="14.00">20</text>
<polygon fill="none" stroke="black" points="52.5,-314 52.5,-335 80.5,-335 80.5,-314 52.5,-314"/>
<text text-anchor="start" x="59.5" y="-320.8" font-family="Times New Roman,serif" font-size="14.00">12</text>
<polygon fill="none" stroke="black" points="80.5,-314 80.5,-335 165.5,-335 165.5,-314 80.5,-314"/>
<polygon fill="none" stroke="black" points="165.5,-314 165.5,-335 301.5,-335 301.5,-314 165.5,-314"/>
<text text-anchor="start" x="203.5" y="-320.8" font-family="Times New Roman,serif" font-size="14.00">padding_1</text>
<polygon fill="none" stroke="black" points="24.5,-293 24.5,-314 52.5,-314 52.5,-293 24.5,-293"/>
<text text-anchor="start" x="31.5" y="-299.8" font-family="Times New Roman,serif" font-size="14.00">32</text>
<polygon fill="none" stroke="black" points="52.5,-293 52.5,-314 80.5,-314 80.5,-293 52.5,-293"/>
<text text-anchor="start" x="63" y="-299.8" font-family="Times New Roman,serif" font-size="14.00">4</text>
<polygon fill="none" stroke="black" points="80.5,-293 80.5,-314 165.5,-314 165.5,-293 80.5,-293"/>
<text text-anchor="start" x="112.5" y="-299.8" font-family="Times New Roman,serif" font-size="14.00">f4le</text>
<polygon fill="none" stroke="black" points="165.5,-293 165.5,-314 301.5,-314 301.5,-293 165.5,-293"/>
<text text-anchor="start" x="200" y="-299.8" font-family="Times New Roman,serif" font-size="14.00">layer_height</text>
<polygon fill="none" stroke="black" points="24.5,-272 24.5,-293 52.5,-293 52.5,-272 24.5,-272"/>
<text text-anchor="start" x="31.5" y="-278.8" font-family="Times New Roman,serif" font-size="14.00">36</text>
<polygon fill="none" stroke="black" points="52.5,-272 52.5,-293 80.5,-293 80.5,-272 52.5,-272"/>
<text text-anchor="start" x="63" y="-278.8" font-family="Times New Roman,serif" font-size="14.00">4</text>
<polygon fill="none" stroke="black" points="80.5,-272 80.5,-293 165.5,-293 165.5,-272 80.5,-272"/>
<text text-anchor="start" x="112.5" y="-278.8" font-family="Times New Roman,serif" font-size="14.00">f4le</text>
<polygon fill="none" stroke="black" points="165.5,-272 165.5,-293 301.5,-293 301.5,-272 165.5,-272"/>
<text text-anchor="start" x="192.5" y="-278.8" font-family="Times New Roman,serif" font-size="14.00">exposure_time</text>
<polygon fill="none" stroke="black" points="24.5,-251 24.5,-272 52.5,-272 52.5,-251 24.5,-251"/>
<text text-anchor="start" x="31.5" y="-257.8" font-family="Times New Roman,serif" font-size="14.00">40</text>
<polygon fill="none" stroke="black" points="52.5,-251 52.5,-272 80.5,-272 80.5,-251 52.5,-251"/>
<text text-anchor="start" x="63" y="-257.8" font-family="Times New Roman,serif" font-size="14.00">4</text>
<polygon fill="none" stroke="black" points="80.5,-251 80.5,-272 165.5,-272 165.5,-251 80.5,-251"/>
<text text-anchor="start" x="112.5" y="-257.8" font-family="Times New Roman,serif" font-size="14.00">f4le</text>
<polygon fill="none" stroke="black" points="165.5,-251 165.5,-272 301.5,-272 301.5,-251 165.5,-251"/>
<text text-anchor="start" x="168.5" y="-257.8" font-family="Times New Roman,serif" font-size="14.00">exposure_time_bottom</text>
<polygon fill="none" stroke="black" points="24.5,-230 24.5,-251 52.5,-251 52.5,-230 24.5,-230"/>
<text text-anchor="start" x="31.5" y="-236.8" font-family="Times New Roman,serif" font-size="14.00">44</text>
<polygon fill="none" stroke="black" points="52.5,-230 52.5,-251 80.5,-251 80.5,-230 52.5,-230"/>
<text text-anchor="start" x="63" y="-236.8" font-family="Times New Roman,serif" font-size="14.00">4</text>
<polygon fill="none" stroke="black" points="80.5,-230 80.5,-251 165.5,-251 165.5,-230 80.5,-230"/>
<text text-anchor="start" x="112.5" y="-236.8" font-family="Times New Roman,serif" font-size="14.00">f4le</text>
<polygon fill="none" stroke="black" points="165.5,-230 165.5,-251 301.5,-251 301.5,-230 165.5,-230"/>
<text text-anchor="start" x="209.5" y="-236.8" font-family="Times New Roman,serif" font-size="14.00">off_time</text>
<polygon fill="none" stroke="black" points="24.5,-209 24.5,-230 52.5,-230 52.5,-209 24.5,-209"/>
<text text-anchor="start" x="31.5" y="-215.8" font-family="Times New Roman,serif" font-size="14.00">48</text>
<polygon fill="none" stroke="black" points="52.5,-209 52.5,-230 80.5,-230 80.5,-209 52.5,-209"/>
<text text-anchor="start" x="63" y="-215.8" font-family="Times New Roman,serif" font-size="14.00">4</text>
<polygon fill="none" stroke="black" points="80.5,-209 80.5,-230 165.5,-230 165.5,-209 80.5,-209"/>
<text text-anchor="start" x="112" y="-215.8" font-family="Times New Roman,serif" font-size="14.00">s4le</text>
<polygon fill="none" stroke="black" points="165.5,-209 165.5,-230 301.5,-230 301.5,-209 165.5,-209"/>
<text text-anchor="start" x="193" y="-215.8" font-family="Times New Roman,serif" font-size="14.00">bottom_layers</text>
<polygon fill="none" stroke="black" points="24.5,-188 24.5,-209 52.5,-209 52.5,-188 24.5,-188"/>
<text text-anchor="start" x="31.5" y="-194.8" font-family="Times New Roman,serif" font-size="14.00">52</text>
<polygon fill="none" stroke="black" points="52.5,-188 52.5,-209 80.5,-209 80.5,-188 52.5,-188"/>
<text text-anchor="start" x="63" y="-194.8" font-family="Times New Roman,serif" font-size="14.00">4</text>
<polygon fill="none" stroke="black" points="80.5,-188 80.5,-209 165.5,-209 165.5,-188 80.5,-188"/>
<text text-anchor="start" x="112" y="-194.8" font-family="Times New Roman,serif" font-size="14.00">s4le</text>
<polygon fill="none" stroke="black" points="165.5,-188 165.5,-209 301.5,-209 301.5,-188 165.5,-188"/>
<text text-anchor="start" x="198.5" y="-194.8" font-family="Times New Roman,serif" font-size="14.00">resolution_x</text>
<polygon fill="none" stroke="black" points="24.5,-167 24.5,-188 52.5,-188 52.5,-167 24.5,-167"/>
<text text-anchor="start" x="31.5" y="-173.8" font-family="Times New Roman,serif" font-size="14.00">56</text>
<polygon fill="none" stroke="black" points="52.5,-167 52.5,-188 80.5,-188 80.5,-167 52.5,-167"/>
<text text-anchor="start" x="63" y="-173.8" font-family="Times New Roman,serif" font-size="14.00">4</text>
<polygon fill="none" stroke="black" points="80.5,-167 80.5,-188 165.5,-188 165.5,-167 80.5,-167"/>
<text text-anchor="start" x="112" y="-173.8" font-family="Times New Roman,serif" font-size="14.00">s4le</text>
<polygon fill="none" stroke="black" points="165.5,-167 165.5,-188 301.5,-188 301.5,-167 165.5,-167"/>
<text text-anchor="start" x="198.5" y="-173.8" font-family="Times New Roman,serif" font-size="14.00">resolution_y</text>
<polygon fill="none" stroke="black" points="24.5,-146 24.5,-167 52.5,-167 52.5,-146 24.5,-146"/>
<text text-anchor="start" x="31.5" y="-152.8" font-family="Times New Roman,serif" font-size="14.00">60</text>
<polygon fill="none" stroke="black" points="52.5,-146 52.5,-167 80.5,-167 80.5,-146 52.5,-146"/>
<text text-anchor="start" x="63" y="-152.8" font-family="Times New Roman,serif" font-size="14.00">4</text>
<polygon fill="none" stroke="black" points="80.5,-146 80.5,-167 165.5,-167 165.5,-146 80.5,-146"/>
<text text-anchor="start" x="83.5" y="-152.8" font-family="Times New Roman,serif" font-size="14.00">PreviewImage</text>
<polygon fill="none" stroke="black" points="165.5,-146 165.5,-167 301.5,-167 301.5,-146 165.5,-146"/>
<text text-anchor="start" x="188" y="-152.8" font-family="Times New Roman,serif" font-size="14.00">preview_highres</text>
<polygon fill="none" stroke="black" points="24.5,-125 24.5,-146 52.5,-146 52.5,-125 24.5,-125"/>
<text text-anchor="start" x="31.5" y="-131.8" font-family="Times New Roman,serif" font-size="14.00">64</text>
<polygon fill="none" stroke="black" points="52.5,-125 52.5,-146 80.5,-146 80.5,-125 52.5,-125"/>
<text text-anchor="start" x="63" y="-131.8" font-family="Times New Roman,serif" font-size="14.00">4</text>
<polygon fill="none" stroke="black" points="80.5,-125 80.5,-146 165.5,-146 165.5,-125 80.5,-125"/>
<text text-anchor="start" x="112" y="-131.8" font-family="Times New Roman,serif" font-size="14.00">s4le</text>
<polygon fill="none" stroke="black" points="165.5,-125 165.5,-146 301.5,-146 301.5,-125 165.5,-125"/>
<text text-anchor="start" x="182" y="-131.8" font-family="Times New Roman,serif" font-size="14.00">layer_def_address</text>
<polygon fill="none" stroke="black" points="24.5,-104 24.5,-125 52.5,-125 52.5,-104 24.5,-104"/>
<text text-anchor="start" x="31.5" y="-110.8" font-family="Times New Roman,serif" font-size="14.00">68</text>
<polygon fill="none" stroke="black" points="52.5,-104 52.5,-125 80.5,-125 80.5,-104 52.5,-104"/>
<text text-anchor="start" x="63" y="-110.8" font-family="Times New Roman,serif" font-size="14.00">4</text>
<polygon fill="none" stroke="black" points="80.5,-104 80.5,-125 165.5,-125 165.5,-104 80.5,-104"/>
<text text-anchor="start" x="112" y="-110.8" font-family="Times New Roman,serif" font-size="14.00">s4le</text>
<polygon fill="none" stroke="black" points="165.5,-104 165.5,-125 301.5,-125 301.5,-104 165.5,-104"/>
<text text-anchor="start" x="210" y="-110.8" font-family="Times New Roman,serif" font-size="14.00">n_layers</text>
<polygon fill="none" stroke="black" points="24.5,-83 24.5,-104 52.5,-104 52.5,-83 24.5,-83"/>
<text text-anchor="start" x="31.5" y="-89.8" font-family="Times New Roman,serif" font-size="14.00">72</text>
<polygon fill="none" stroke="black" points="52.5,-83 52.5,-104 80.5,-104 80.5,-83 52.5,-83"/>
<text text-anchor="start" x="63" y="-89.8" font-family="Times New Roman,serif" font-size="14.00">4</text>
<polygon fill="none" stroke="black" points="80.5,-83 80.5,-104 165.5,-104 165.5,-83 80.5,-83"/>
<text text-anchor="start" x="83.5" y="-89.8" font-family="Times New Roman,serif" font-size="14.00">PreviewImage</text>
<polygon fill="none" stroke="black" points="165.5,-83 165.5,-104 301.5,-104 301.5,-83 165.5,-83"/>
<text text-anchor="start" x="189.5" y="-89.8" font-family="Times New Roman,serif" font-size="14.00">preview_lowres</text>
<polygon fill="none" stroke="black" points="24.5,-62 24.5,-83 52.5,-83 52.5,-62 24.5,-62"/>
<text text-anchor="start" x="31.5" y="-68.8" font-family="Times New Roman,serif" font-size="14.00">76</text>
<polygon fill="none" stroke="black" points="52.5,-62 52.5,-83 80.5,-83 80.5,-62 52.5,-62"/>
<text text-anchor="start" x="63" y="-68.8" font-family="Times New Roman,serif" font-size="14.00">4</text>
<polygon fill="none" stroke="black" points="80.5,-62 80.5,-83 165.5,-83 165.5,-62 80.5,-62"/>
<polygon fill="none" stroke="black" points="165.5,-62 165.5,-83 301.5,-83 301.5,-62 165.5,-62"/>
<text text-anchor="start" x="203.5" y="-68.8" font-family="Times New Roman,serif" font-size="14.00">padding_2</text>
<polygon fill="none" stroke="black" points="24.5,-41 24.5,-62 52.5,-62 52.5,-41 24.5,-41"/>
<text text-anchor="start" x="31.5" y="-47.8" font-family="Times New Roman,serif" font-size="14.00">80</text>
<polygon fill="none" stroke="black" points="52.5,-41 52.5,-62 80.5,-62 80.5,-41 52.5,-41"/>
<text text-anchor="start" x="63" y="-47.8" font-family="Times New Roman,serif" font-size="14.00">4</text>
<polygon fill="none" stroke="black" points="80.5,-41 80.5,-62 165.5,-62 165.5,-41 80.5,-41"/>
<text text-anchor="start" x="112" y="-47.8" font-family="Times New Roman,serif" font-size="14.00">s4le</text>
<polygon fill="none" stroke="black" points="165.5,-41 165.5,-62 301.5,-62 301.5,-41 165.5,-41"/>
<text text-anchor="start" x="189.5" y="-47.8" font-family="Times New Roman,serif" font-size="14.00">projection_type</text>
<polygon fill="none" stroke="black" points="24.5,-20 24.5,-41 52.5,-41 52.5,-20 24.5,-20"/>
<text text-anchor="start" x="31.5" y="-26.8" font-family="Times New Roman,serif" font-size="14.00">84</text>
<polygon fill="none" stroke="black" points="52.5,-20 52.5,-41 80.5,-41 80.5,-20 52.5,-20"/>
<text text-anchor="start" x="59.5" y="-26.8" font-family="Times New Roman,serif" font-size="14.00">24</text>
<polygon fill="none" stroke="black" points="80.5,-20 80.5,-41 165.5,-41 165.5,-20 80.5,-20"/>
<polygon fill="none" stroke="black" points="165.5,-20 165.5,-41 301.5,-41 301.5,-20 165.5,-20"/>
<text text-anchor="start" x="203.5" y="-26.8" font-family="Times New Roman,serif" font-size="14.00">padding_3</text>
</g>
<!-- photon__inst__layers -->
<g id="node2" class="node"><title>photon__inst__layers</title>
<polygon fill="#e0ffe0" stroke="none" points="397,-146 397,-167 506,-167 506,-146 397,-146"/>
<polygon fill="none" stroke="black" points="397,-146 397,-167 506,-167 506,-146 397,-146"/>
<text text-anchor="start" x="440.5" y="-152.8" font-family="Times New Roman,serif" font-size="14.00">pos</text>
<polygon fill="#e0ffe0" stroke="none" points="506,-146 506,-167 534,-167 534,-146 506,-146"/>
<polygon fill="none" stroke="black" points="506,-146 506,-167 534,-167 534,-146 506,-146"/>
<text text-anchor="start" x="509" y="-152.8" font-family="Times New Roman,serif" font-size="14.00">size</text>
<polygon fill="#e0ffe0" stroke="none" points="534,-146 534,-167 572,-167 572,-146 534,-146"/>
<polygon fill="none" stroke="black" points="534,-146 534,-167 572,-167 572,-146 534,-146"/>
<text text-anchor="start" x="540.5" y="-152.8" font-family="Times New Roman,serif" font-size="14.00">type</text>
<polygon fill="#e0ffe0" stroke="none" points="572,-146 572,-167 611,-167 611,-146 572,-146"/>
<polygon fill="none" stroke="black" points="572,-146 572,-167 611,-167 611,-146 572,-146"/>
<text text-anchor="start" x="586" y="-152.8" font-family="Times New Roman,serif" font-size="14.00">id</text>
<polygon fill="none" stroke="black" points="397,-125 397,-146 506,-146 506,-125 397,-125"/>
<text text-anchor="start" x="400" y="-131.8" font-family="Times New Roman,serif" font-size="14.00">layer_def_address</text>
<polygon fill="none" stroke="black" points="506,-125 506,-146 534,-146 534,-125 506,-125"/>
<text text-anchor="start" x="513" y="-131.8" font-family="Times New Roman,serif" font-size="14.00">36</text>
<polygon fill="none" stroke="black" points="534,-125 534,-146 572,-146 572,-125 534,-125"/>
<text text-anchor="start" x="537" y="-131.8" font-family="Times New Roman,serif" font-size="14.00">Layer</text>
<polygon fill="none" stroke="black" points="572,-125 572,-146 611,-146 611,-125 572,-125"/>
<text text-anchor="start" x="575" y="-131.8" font-family="Times New Roman,serif" font-size="14.00">layers</text>
<polygon fill="none" stroke="black" points="397,-104 397,-125 611,-125 611,-104 397,-104"/>
<text text-anchor="start" x="445" y="-110.8" font-family="Times New Roman,serif" font-size="14.00">repeat n_layers times</text>
</g>
<!-- photon__seq&#45;&gt;photon__inst__layers -->
<g id="edge3" class="edge"><title>photon__seq:layer_def_address_type&#45;&gt;photon__inst__layers:layers_pos</title>
<path fill="none" stroke="#404040" d="M302.5,-135C340.484,-135 352.429,-135 385.937,-135"/>
<polygon fill="#404040" stroke="#404040" points="386,-138.5 396,-135 386,-131.5 386,-138.5"/>
</g>
<!-- photon__seq&#45;&gt;photon__inst__layers -->
<g id="edge5" class="edge"><title>photon__seq:n_layers_type&#45;&gt;photon__inst__layers:layers__repeat</title>
<path fill="none" stroke="#404040" d="M302.5,-114C340.484,-114 352.429,-114 385.937,-114"/>
<polygon fill="#404040" stroke="#404040" points="386,-117.5 396,-114 386,-110.5 386,-117.5"/>
</g>
<!-- preview_image__seq -->
<g id="node3" class="node"><title>preview_image__seq</title>
<polygon fill="#e0ffe0" stroke="none" points="414,-407 414,-428 442,-428 442,-407 414,-407"/>
<polygon fill="none" stroke="black" points="414,-407 414,-428 442,-428 442,-407 414,-407"/>
<text text-anchor="start" x="417" y="-413.8" font-family="Times New Roman,serif" font-size="14.00">pos</text>
<polygon fill="#e0ffe0" stroke="none" points="442,-407 442,-428 470,-428 470,-407 442,-407"/>
<polygon fill="none" stroke="black" points="442,-407 442,-428 470,-428 470,-407 442,-407"/>
<text text-anchor="start" x="445" y="-413.8" font-family="Times New Roman,serif" font-size="14.00">size</text>
<polygon fill="#e0ffe0" stroke="none" points="470,-407 470,-428 501,-428 501,-407 470,-407"/>
<polygon fill="none" stroke="black" points="470,-407 470,-428 501,-428 501,-407 470,-407"/>
<text text-anchor="start" x="473" y="-413.8" font-family="Times New Roman,serif" font-size="14.00">type</text>
<polygon fill="#e0ffe0" stroke="none" points="501,-407 501,-428 595,-428 595,-407 501,-407"/>
<polygon fill="none" stroke="black" points="501,-407 501,-428 595,-428 595,-407 501,-407"/>
<text text-anchor="start" x="542.5" y="-413.8" font-family="Times New Roman,serif" font-size="14.00">id</text>
<polygon fill="none" stroke="black" points="414,-386 414,-407 442,-407 442,-386 414,-386"/>
<text text-anchor="start" x="424.5" y="-392.8" font-family="Times New Roman,serif" font-size="14.00">0</text>
<polygon fill="none" stroke="black" points="442,-386 442,-407 470,-407 470,-386 442,-386"/>
<text text-anchor="start" x="452.5" y="-392.8" font-family="Times New Roman,serif" font-size="14.00">4</text>
<polygon fill="none" stroke="black" points="470,-386 470,-407 501,-407 501,-386 470,-386"/>
<text text-anchor="start" x="474.5" y="-392.8" font-family="Times New Roman,serif" font-size="14.00">s4le</text>
<polygon fill="none" stroke="black" points="501,-386 501,-407 595,-407 595,-386 501,-386"/>
<text text-anchor="start" x="504" y="-392.8" font-family="Times New Roman,serif" font-size="14.00">header_address</text>
</g>
<!-- photon__seq&#45;&gt;preview_image__seq -->
<g id="edge1" class="edge"><title>photon__seq:preview_highres_type&#45;&gt;preview_image__seq</title>
<path fill="none" stroke="black" stroke-width="2" d="M302.5,-156C352.426,-156 302.03,-342.367 337,-378 352.549,-393.844 373.464,-402.843 395.199,-407.663"/>
<polygon fill="black" stroke="black" stroke-width="2" points="394.745,-411.14 405.226,-409.594 396.068,-404.266 394.745,-411.14"/>
</g>
<!-- photon__seq&#45;&gt;preview_image__seq -->
<g id="edge2" class="edge"><title>photon__seq:preview_lowres_type&#45;&gt;preview_image__seq</title>
<path fill="none" stroke="black" stroke-width="2" d="M302.5,-93C366.296,-93 293.089,-331.721 337,-378 352.367,-394.196 373.323,-403.313 395.171,-408.132"/>
<polygon fill="black" stroke="black" stroke-width="2" points="394.777,-411.62 405.255,-410.054 396.087,-404.743 394.777,-411.62"/>
</g>
<!-- layer__seq -->
<g id="node7" class="node"><title>layer__seq</title>
<polygon fill="#e0ffe0" stroke="none" points="767.5,-187 767.5,-208 795.5,-208 795.5,-187 767.5,-187"/>
<polygon fill="none" stroke="black" points="767.5,-187 767.5,-208 795.5,-208 795.5,-187 767.5,-187"/>
<text text-anchor="start" x="770.5" y="-193.8" font-family="Times New Roman,serif" font-size="14.00">pos</text>
<polygon fill="#e0ffe0" stroke="none" points="795.5,-187 795.5,-208 823.5,-208 823.5,-187 795.5,-187"/>
<polygon fill="none" stroke="black" points="795.5,-187 795.5,-208 823.5,-208 823.5,-187 795.5,-187"/>
<text text-anchor="start" x="798.5" y="-193.8" font-family="Times New Roman,serif" font-size="14.00">size</text>
<polygon fill="#e0ffe0" stroke="none" points="823.5,-187 823.5,-208 854.5,-208 854.5,-187 823.5,-187"/>
<polygon fill="none" stroke="black" points="823.5,-187 823.5,-208 854.5,-208 854.5,-187 823.5,-187"/>
<text text-anchor="start" x="826.5" y="-193.8" font-family="Times New Roman,serif" font-size="14.00">type</text>
<polygon fill="#e0ffe0" stroke="none" points="854.5,-187 854.5,-208 935.5,-208 935.5,-187 854.5,-187"/>
<polygon fill="none" stroke="black" points="854.5,-187 854.5,-208 935.5,-208 935.5,-187 854.5,-187"/>
<text text-anchor="start" x="889.5" y="-193.8" font-family="Times New Roman,serif" font-size="14.00">id</text>
<polygon fill="none" stroke="black" points="767.5,-166 767.5,-187 795.5,-187 795.5,-166 767.5,-166"/>
<text text-anchor="start" x="778" y="-172.8" font-family="Times New Roman,serif" font-size="14.00">0</text>
<polygon fill="none" stroke="black" points="795.5,-166 795.5,-187 823.5,-187 823.5,-166 795.5,-166"/>
<text text-anchor="start" x="806" y="-172.8" font-family="Times New Roman,serif" font-size="14.00">4</text>
<polygon fill="none" stroke="black" points="823.5,-166 823.5,-187 854.5,-187 854.5,-166 823.5,-166"/>
<text text-anchor="start" x="828.5" y="-172.8" font-family="Times New Roman,serif" font-size="14.00">f4le</text>
<polygon fill="none" stroke="black" points="854.5,-166 854.5,-187 935.5,-187 935.5,-166 854.5,-166"/>
<text text-anchor="start" x="878" y="-172.8" font-family="Times New Roman,serif" font-size="14.00">height</text>
<polygon fill="none" stroke="black" points="767.5,-145 767.5,-166 795.5,-166 795.5,-145 767.5,-145"/>
<text text-anchor="start" x="778" y="-151.8" font-family="Times New Roman,serif" font-size="14.00">4</text>
<polygon fill="none" stroke="black" points="795.5,-145 795.5,-166 823.5,-166 823.5,-145 795.5,-145"/>
<text text-anchor="start" x="806" y="-151.8" font-family="Times New Roman,serif" font-size="14.00">4</text>
<polygon fill="none" stroke="black" points="823.5,-145 823.5,-166 854.5,-166 854.5,-145 823.5,-145"/>
<text text-anchor="start" x="828.5" y="-151.8" font-family="Times New Roman,serif" font-size="14.00">f4le</text>
<polygon fill="none" stroke="black" points="854.5,-145 854.5,-166 935.5,-166 935.5,-145 854.5,-145"/>
<text text-anchor="start" x="869" y="-151.8" font-family="Times New Roman,serif" font-size="14.00">exposure</text>
<polygon fill="none" stroke="black" points="767.5,-124 767.5,-145 795.5,-145 795.5,-124 767.5,-124"/>
<text text-anchor="start" x="778" y="-130.8" font-family="Times New Roman,serif" font-size="14.00">8</text>
<polygon fill="none" stroke="black" points="795.5,-124 795.5,-145 823.5,-145 823.5,-124 795.5,-124"/>
<text text-anchor="start" x="806" y="-130.8" font-family="Times New Roman,serif" font-size="14.00">4</text>
<polygon fill="none" stroke="black" points="823.5,-124 823.5,-145 854.5,-145 854.5,-124 823.5,-124"/>
<text text-anchor="start" x="828.5" y="-130.8" font-family="Times New Roman,serif" font-size="14.00">f4le</text>
<polygon fill="none" stroke="black" points="854.5,-124 854.5,-145 935.5,-145 935.5,-124 854.5,-124"/>
<text text-anchor="start" x="871" y="-130.8" font-family="Times New Roman,serif" font-size="14.00">off_time</text>
<polygon fill="none" stroke="black" points="767.5,-103 767.5,-124 795.5,-124 795.5,-103 767.5,-103"/>
<text text-anchor="start" x="774.5" y="-109.8" font-family="Times New Roman,serif" font-size="14.00">12</text>
<polygon fill="none" stroke="black" points="795.5,-103 795.5,-124 823.5,-124 823.5,-103 795.5,-103"/>
<text text-anchor="start" x="806" y="-109.8" font-family="Times New Roman,serif" font-size="14.00">4</text>
<polygon fill="none" stroke="black" points="823.5,-103 823.5,-124 854.5,-124 854.5,-103 823.5,-103"/>
<text text-anchor="start" x="828" y="-109.8" font-family="Times New Roman,serif" font-size="14.00">s4le</text>
<polygon fill="none" stroke="black" points="854.5,-103 854.5,-124 935.5,-124 935.5,-103 854.5,-103"/>
<text text-anchor="start" x="857.5" y="-109.8" font-family="Times New Roman,serif" font-size="14.00">data_address</text>
<polygon fill="none" stroke="black" points="767.5,-82 767.5,-103 795.5,-103 795.5,-82 767.5,-82"/>
<text text-anchor="start" x="774.5" y="-88.8" font-family="Times New Roman,serif" font-size="14.00">16</text>
<polygon fill="none" stroke="black" points="795.5,-82 795.5,-103 823.5,-103 823.5,-82 795.5,-82"/>
<text text-anchor="start" x="806" y="-88.8" font-family="Times New Roman,serif" font-size="14.00">4</text>
<polygon fill="none" stroke="black" points="823.5,-82 823.5,-103 854.5,-103 854.5,-82 823.5,-82"/>
<text text-anchor="start" x="828" y="-88.8" font-family="Times New Roman,serif" font-size="14.00">s4le</text>
<polygon fill="none" stroke="black" points="854.5,-82 854.5,-103 935.5,-103 935.5,-82 854.5,-82"/>
<text text-anchor="start" x="863" y="-88.8" font-family="Times New Roman,serif" font-size="14.00">data_length</text>
<polygon fill="none" stroke="black" points="767.5,-61 767.5,-82 795.5,-82 795.5,-61 767.5,-61"/>
<text text-anchor="start" x="774.5" y="-67.8" font-family="Times New Roman,serif" font-size="14.00">20</text>
<polygon fill="none" stroke="black" points="795.5,-61 795.5,-82 823.5,-82 823.5,-61 795.5,-61"/>
<text text-anchor="start" x="802.5" y="-67.8" font-family="Times New Roman,serif" font-size="14.00">16</text>
<polygon fill="none" stroke="black" points="823.5,-61 823.5,-82 854.5,-82 854.5,-61 823.5,-61"/>
<polygon fill="none" stroke="black" points="854.5,-61 854.5,-82 935.5,-82 935.5,-61 854.5,-61"/>
<text text-anchor="start" x="872" y="-67.8" font-family="Times New Roman,serif" font-size="14.00">padding</text>
</g>
<!-- photon__inst__layers&#45;&gt;layer__seq -->
<g id="edge4" class="edge"><title>photon__inst__layers:layers_type&#45;&gt;layer__seq</title>
<path fill="none" stroke="black" stroke-width="2" d="M612,-135C657.041,-135 706.868,-135 749.28,-135"/>
<polygon fill="black" stroke="black" stroke-width="2" points="749.331,-138.5 759.331,-135 749.331,-131.5 749.331,-138.5"/>
</g>
<!-- preview_image__inst__header -->
<g id="node4" class="node"><title>preview_image__inst__header</title>
<polygon fill="#e0ffe0" stroke="none" points="707.5,-441 707.5,-462 801.5,-462 801.5,-441 707.5,-441"/>
<polygon fill="none" stroke="black" points="707.5,-441 707.5,-462 801.5,-462 801.5,-441 707.5,-441"/>
<text text-anchor="start" x="743.5" y="-447.8" font-family="Times New Roman,serif" font-size="14.00">pos</text>
<polygon fill="#e0ffe0" stroke="none" points="801.5,-441 801.5,-462 829.5,-462 829.5,-441 801.5,-441"/>
<polygon fill="none" stroke="black" points="801.5,-441 801.5,-462 829.5,-462 829.5,-441 801.5,-441"/>
<text text-anchor="start" x="804.5" y="-447.8" font-family="Times New Roman,serif" font-size="14.00">size</text>
<polygon fill="#e0ffe0" stroke="none" points="829.5,-441 829.5,-462 953.5,-462 953.5,-441 829.5,-441"/>
<polygon fill="none" stroke="black" points="829.5,-441 829.5,-462 953.5,-462 953.5,-441 829.5,-441"/>
<text text-anchor="start" x="879" y="-447.8" font-family="Times New Roman,serif" font-size="14.00">type</text>
<polygon fill="#e0ffe0" stroke="none" points="953.5,-441 953.5,-462 996.5,-462 996.5,-441 953.5,-441"/>
<polygon fill="none" stroke="black" points="953.5,-441 953.5,-462 996.5,-462 996.5,-441 953.5,-441"/>
<text text-anchor="start" x="969.5" y="-447.8" font-family="Times New Roman,serif" font-size="14.00">id</text>
<polygon fill="none" stroke="black" points="707.5,-420 707.5,-441 801.5,-441 801.5,-420 707.5,-420"/>
<text text-anchor="start" x="710.5" y="-426.8" font-family="Times New Roman,serif" font-size="14.00">header_address</text>
<polygon fill="none" stroke="black" points="801.5,-420 801.5,-441 829.5,-441 829.5,-420 801.5,-420"/>
<text text-anchor="start" x="808.5" y="-426.8" font-family="Times New Roman,serif" font-size="14.00">16</text>
<polygon fill="none" stroke="black" points="829.5,-420 829.5,-441 953.5,-441 953.5,-420 829.5,-420"/>
<text text-anchor="start" x="832.5" y="-426.8" font-family="Times New Roman,serif" font-size="14.00">PreviewImageHeader</text>
<polygon fill="none" stroke="black" points="953.5,-420 953.5,-441 996.5,-441 996.5,-420 953.5,-420"/>
<text text-anchor="start" x="956.5" y="-426.8" font-family="Times New Roman,serif" font-size="14.00">header</text>
</g>
<!-- preview_image__seq&#45;&gt;preview_image__inst__header -->
<g id="edge6" class="edge"><title>preview_image__seq:header_address_type&#45;&gt;preview_image__inst__header:header_pos</title>
<path fill="none" stroke="#404040" d="M596,-396C643.77,-396 653.813,-425.387 696.278,-429.519"/>
<polygon fill="#404040" stroke="#404040" points="696.347,-433.026 706.5,-430 696.675,-426.034 696.347,-433.026"/>
</g>
<!-- preview_image_header__seq -->
<g id="node6" class="node"><title>preview_image_header__seq</title>
<polygon fill="#e0ffe0" stroke="none" points="78.5,-550 78.5,-571 106.5,-571 106.5,-550 78.5,-550"/>
<polygon fill="none" stroke="black" points="78.5,-550 78.5,-571 106.5,-571 106.5,-550 78.5,-550"/>
<text text-anchor="start" x="81.5" y="-556.8" font-family="Times New Roman,serif" font-size="14.00">pos</text>
<polygon fill="#e0ffe0" stroke="none" points="106.5,-550 106.5,-571 134.5,-571 134.5,-550 106.5,-550"/>
<polygon fill="none" stroke="black" points="106.5,-550 106.5,-571 134.5,-571 134.5,-550 106.5,-550"/>
<text text-anchor="start" x="109.5" y="-556.8" font-family="Times New Roman,serif" font-size="14.00">size</text>
<polygon fill="#e0ffe0" stroke="none" points="134.5,-550 134.5,-571 165.5,-571 165.5,-550 134.5,-550"/>
<polygon fill="none" stroke="black" points="134.5,-550 134.5,-571 165.5,-571 165.5,-550 134.5,-550"/>
<text text-anchor="start" x="137.5" y="-556.8" font-family="Times New Roman,serif" font-size="14.00">type</text>
<polygon fill="#e0ffe0" stroke="none" points="165.5,-550 165.5,-571 246.5,-571 246.5,-550 165.5,-550"/>
<polygon fill="none" stroke="black" points="165.5,-550 165.5,-571 246.5,-571 246.5,-550 165.5,-550"/>
<text text-anchor="start" x="200.5" y="-556.8" font-family="Times New Roman,serif" font-size="14.00">id</text>
<polygon fill="none" stroke="black" points="78.5,-529 78.5,-550 106.5,-550 106.5,-529 78.5,-529"/>
<text text-anchor="start" x="89" y="-535.8" font-family="Times New Roman,serif" font-size="14.00">0</text>
<polygon fill="none" stroke="black" points="106.5,-529 106.5,-550 134.5,-550 134.5,-529 106.5,-529"/>
<text text-anchor="start" x="117" y="-535.8" font-family="Times New Roman,serif" font-size="14.00">4</text>
<polygon fill="none" stroke="black" points="134.5,-529 134.5,-550 165.5,-550 165.5,-529 134.5,-529"/>
<text text-anchor="start" x="139" y="-535.8" font-family="Times New Roman,serif" font-size="14.00">s4le</text>
<polygon fill="none" stroke="black" points="165.5,-529 165.5,-550 246.5,-550 246.5,-529 165.5,-529"/>
<text text-anchor="start" x="171" y="-535.8" font-family="Times New Roman,serif" font-size="14.00">resolution_x</text>
<polygon fill="none" stroke="black" points="78.5,-508 78.5,-529 106.5,-529 106.5,-508 78.5,-508"/>
<text text-anchor="start" x="89" y="-514.8" font-family="Times New Roman,serif" font-size="14.00">4</text>
<polygon fill="none" stroke="black" points="106.5,-508 106.5,-529 134.5,-529 134.5,-508 106.5,-508"/>
<text text-anchor="start" x="117" y="-514.8" font-family="Times New Roman,serif" font-size="14.00">4</text>
<polygon fill="none" stroke="black" points="134.5,-508 134.5,-529 165.5,-529 165.5,-508 134.5,-508"/>
<text text-anchor="start" x="139" y="-514.8" font-family="Times New Roman,serif" font-size="14.00">s4le</text>
<polygon fill="none" stroke="black" points="165.5,-508 165.5,-529 246.5,-529 246.5,-508 165.5,-508"/>
<text text-anchor="start" x="171" y="-514.8" font-family="Times New Roman,serif" font-size="14.00">resolution_y</text>
<polygon fill="none" stroke="black" points="78.5,-487 78.5,-508 106.5,-508 106.5,-487 78.5,-487"/>
<text text-anchor="start" x="89" y="-493.8" font-family="Times New Roman,serif" font-size="14.00">8</text>
<polygon fill="none" stroke="black" points="106.5,-487 106.5,-508 134.5,-508 134.5,-487 106.5,-487"/>
<text text-anchor="start" x="117" y="-493.8" font-family="Times New Roman,serif" font-size="14.00">4</text>
<polygon fill="none" stroke="black" points="134.5,-487 134.5,-508 165.5,-508 165.5,-487 134.5,-487"/>
<text text-anchor="start" x="139" y="-493.8" font-family="Times New Roman,serif" font-size="14.00">s4le</text>
<polygon fill="none" stroke="black" points="165.5,-487 165.5,-508 246.5,-508 246.5,-487 165.5,-487"/>
<text text-anchor="start" x="168.5" y="-493.8" font-family="Times New Roman,serif" font-size="14.00">data_address</text>
<polygon fill="none" stroke="black" points="78.5,-466 78.5,-487 106.5,-487 106.5,-466 78.5,-466"/>
<text text-anchor="start" x="85.5" y="-472.8" font-family="Times New Roman,serif" font-size="14.00">12</text>
<polygon fill="none" stroke="black" points="106.5,-466 106.5,-487 134.5,-487 134.5,-466 106.5,-466"/>
<text text-anchor="start" x="117" y="-472.8" font-family="Times New Roman,serif" font-size="14.00">4</text>
<polygon fill="none" stroke="black" points="134.5,-466 134.5,-487 165.5,-487 165.5,-466 134.5,-466"/>
<text text-anchor="start" x="139" y="-472.8" font-family="Times New Roman,serif" font-size="14.00">s4le</text>
<polygon fill="none" stroke="black" points="165.5,-466 165.5,-487 246.5,-487 246.5,-466 165.5,-466"/>
<text text-anchor="start" x="174" y="-472.8" font-family="Times New Roman,serif" font-size="14.00">data_length</text>
</g>
<!-- preview_image__inst__header&#45;&gt;preview_image_header__seq -->
<g id="edge7" class="edge"><title>preview_image__inst__header:header_type&#45;&gt;preview_image_header__seq</title>
<path fill="none" stroke="black" stroke-width="2" d="M975.5,-419C975.5,-296.11 800.77,-351.117 699,-420 663.664,-443.917 698.138,-484.794 663,-509 545.594,-589.878 373.035,-571.02 264.547,-547.159"/>
<polygon fill="black" stroke="black" stroke-width="2" points="265.102,-543.697 254.577,-544.913 263.563,-550.525 265.102,-543.697"/>
</g>
<!-- preview_image__inst__image -->
<g id="node5" class="node"><title>preview_image__inst__image</title>
<polygon fill="#e0ffe0" stroke="none" points="353,-475 353,-496 474,-496 474,-475 353,-475"/>
<polygon fill="none" stroke="black" points="353,-475 353,-496 474,-496 474,-475 353,-475"/>
<text text-anchor="start" x="402.5" y="-481.8" font-family="Times New Roman,serif" font-size="14.00">pos</text>
<polygon fill="#e0ffe0" stroke="none" points="474,-475 474,-496 585,-496 585,-475 474,-475"/>
<polygon fill="none" stroke="black" points="474,-475 474,-496 585,-496 585,-475 474,-475"/>
<text text-anchor="start" x="518.5" y="-481.8" font-family="Times New Roman,serif" font-size="14.00">size</text>
<polygon fill="#e0ffe0" stroke="none" points="585,-475 585,-496 616,-496 616,-475 585,-475"/>
<polygon fill="none" stroke="black" points="585,-475 585,-496 616,-496 616,-475 585,-475"/>
<text text-anchor="start" x="588" y="-481.8" font-family="Times New Roman,serif" font-size="14.00">type</text>
<polygon fill="#e0ffe0" stroke="none" points="616,-475 616,-496 655,-496 655,-475 616,-475"/>
<polygon fill="none" stroke="black" points="616,-475 616,-496 655,-496 655,-475 616,-475"/>
<text text-anchor="start" x="630" y="-481.8" font-family="Times New Roman,serif" font-size="14.00">id</text>
<polygon fill="none" stroke="black" points="353,-454 353,-475 474,-475 474,-454 353,-454"/>
<text text-anchor="start" x="356" y="-460.8" font-family="Times New Roman,serif" font-size="14.00">header.data_address</text>
<polygon fill="none" stroke="black" points="474,-454 474,-475 585,-475 585,-454 474,-454"/>
<text text-anchor="start" x="477" y="-460.8" font-family="Times New Roman,serif" font-size="14.00">header.data_length</text>
<polygon fill="none" stroke="black" points="585,-454 585,-475 616,-475 616,-454 585,-454"/>
<polygon fill="none" stroke="black" points="616,-454 616,-475 655,-475 655,-454 616,-454"/>
<text text-anchor="start" x="619" y="-460.8" font-family="Times New Roman,serif" font-size="14.00">image</text>
</g>
<!-- preview_image_header__seq&#45;&gt;preview_image__inst__image -->
<g id="edge8" class="edge"><title>preview_image_header__seq:data_address_type&#45;&gt;preview_image__inst__image:image_pos</title>
<path fill="none" stroke="#404040" d="M247.5,-497C292.59,-497 302.013,-468.717 341.809,-464.518"/>
<polygon fill="#404040" stroke="#404040" points="342.191,-468.004 352,-464 341.835,-461.013 342.191,-468.004"/>
</g>
<!-- preview_image_header__seq&#45;&gt;preview_image__inst__image -->
<g id="edge9" class="edge"><title>preview_image_header__seq:data_length_type&#45;&gt;preview_image__inst__image:image_size</title>
<path fill="none" stroke="#404040" d="M247.5,-476C291.923,-476 300.864,-459.038 345,-454 362.711,-451.978 488.827,-437.253 522.014,-446.782"/>
<polygon fill="#404040" stroke="#404040" points="519.959,-449.618 530,-453 524.26,-444.095 519.959,-449.618"/>
</g>
<!-- layer__inst__image -->
<g id="node8" class="node"><title>layer__inst__image</title>
<polygon fill="#e0ffe0" stroke="none" points="1048.5,-113 1048.5,-134 1129.5,-134 1129.5,-113 1048.5,-113"/>
<polygon fill="none" stroke="black" points="1048.5,-113 1048.5,-134 1129.5,-134 1129.5,-113 1048.5,-113"/>
<text text-anchor="start" x="1078" y="-119.8" font-family="Times New Roman,serif" font-size="14.00">pos</text>
<polygon fill="#e0ffe0" stroke="none" points="1129.5,-113 1129.5,-134 1199.5,-134 1199.5,-113 1129.5,-113"/>
<polygon fill="none" stroke="black" points="1129.5,-113 1129.5,-134 1199.5,-134 1199.5,-113 1129.5,-113"/>
<text text-anchor="start" x="1153.5" y="-119.8" font-family="Times New Roman,serif" font-size="14.00">size</text>
<polygon fill="#e0ffe0" stroke="none" points="1199.5,-113 1199.5,-134 1230.5,-134 1230.5,-113 1199.5,-113"/>
<polygon fill="none" stroke="black" points="1199.5,-113 1199.5,-134 1230.5,-134 1230.5,-113 1199.5,-113"/>
<text text-anchor="start" x="1202.5" y="-119.8" font-family="Times New Roman,serif" font-size="14.00">type</text>
<polygon fill="#e0ffe0" stroke="none" points="1230.5,-113 1230.5,-134 1269.5,-134 1269.5,-113 1230.5,-113"/>
<polygon fill="none" stroke="black" points="1230.5,-113 1230.5,-134 1269.5,-134 1269.5,-113 1230.5,-113"/>
<text text-anchor="start" x="1244.5" y="-119.8" font-family="Times New Roman,serif" font-size="14.00">id</text>
<polygon fill="none" stroke="black" points="1048.5,-92 1048.5,-113 1129.5,-113 1129.5,-92 1048.5,-92"/>
<text text-anchor="start" x="1051.5" y="-98.8" font-family="Times New Roman,serif" font-size="14.00">data_address</text>
<polygon fill="none" stroke="black" points="1129.5,-92 1129.5,-113 1199.5,-113 1199.5,-92 1129.5,-92"/>
<text text-anchor="start" x="1132.5" y="-98.8" font-family="Times New Roman,serif" font-size="14.00">data_length</text>
<polygon fill="none" stroke="black" points="1199.5,-92 1199.5,-113 1230.5,-113 1230.5,-92 1199.5,-92"/>
<polygon fill="none" stroke="black" points="1230.5,-92 1230.5,-113 1269.5,-113 1269.5,-92 1230.5,-92"/>
<text text-anchor="start" x="1233.5" y="-98.8" font-family="Times New Roman,serif" font-size="14.00">image</text>
</g>
<!-- layer__seq&#45;&gt;layer__inst__image -->
<g id="edge10" class="edge"><title>layer__seq:data_address_type&#45;&gt;layer__inst__image:image_pos</title>
<path fill="none" stroke="#404040" d="M936.5,-113C982.492,-113 996.015,-103.532 1037.31,-102.164"/>
<polygon fill="#404040" stroke="#404040" points="1037.56,-105.661 1047.5,-102 1037.44,-98.6616 1037.56,-105.661"/>
</g>
<!-- layer__seq&#45;&gt;layer__inst__image -->
<g id="edge11" class="edge"><title>layer__seq:data_length_type&#45;&gt;layer__inst__image:image_size</title>
<path fill="none" stroke="#404040" d="M936.5,-92C1034.17,-92 1155.38,3.07266 1164.01,-80.7988"/>
<polygon fill="#404040" stroke="#404040" points="1160.53,-81.1791 1164.5,-91 1167.52,-80.8439 1160.53,-81.1791"/>
</g>
</g>
</svg>
